<svg width="81" height="93" viewBox="0 0 81 93" fill="none" xmlns="http://www.w3.org/2000/svg">
<path d="M75.1187 86.8713L69.3412 92.6628L63.5636 86.8713L57.7861 92.6628L52.0086 86.8713L46.2311 92.6628L40.4536 86.8713L34.676 92.6628L28.8985 86.8713L23.121 92.6628L17.3435 86.8713L11.566 92.6628L5.78844 86.8713L0.0109253 92.6628L0.0109253 5.79142C0.0109253 4.22291 0.582659 2.86555 1.72613 1.71933C2.86959 0.573109 4.2237 0 5.78844 0L75.1187 0C76.6834 0 78.0375 0.573109 79.181 1.71933C80.3245 2.86555 80.8962 4.22291 80.8962 5.79142V92.6628L75.1187 86.8713ZM14.4547 75.2885H31.7873C32.5697 75.2885 33.2467 75.0019 33.8184 74.4288C34.3902 73.8557 34.676 73.177 34.676 72.3928C34.676 71.6085 34.3902 70.9298 33.8184 70.3567C33.2467 69.7836 32.5697 69.4971 31.7873 69.4971H14.4547C13.6724 69.4971 12.9953 69.7836 12.4236 70.3567C11.8518 70.9298 11.566 71.6085 11.566 72.3928C11.566 73.177 11.8518 73.8557 12.4236 74.4288C12.9953 75.0019 13.6724 75.2885 14.4547 75.2885ZM69.3412 14.4786C69.3412 13.6943 69.0553 13.0156 68.4836 12.4425C67.9118 11.8694 67.2348 11.5828 66.4524 11.5828L14.4547 11.5828C13.6724 11.5828 12.9953 11.8694 12.4236 12.4425C11.8518 13.0156 11.566 13.6943 11.566 14.4786L11.566 49.2271C11.566 50.0113 11.8518 50.69 12.4236 51.2631C12.9953 51.8362 13.6724 52.1228 14.4547 52.1228H46.2311V60.8099C46.2311 61.5942 46.5169 62.2729 47.0887 62.846C47.6604 63.4191 48.3375 63.7056 49.1198 63.7056L66.4524 63.7056C67.2348 63.7056 67.9118 63.4191 68.4836 62.846C69.0553 62.2729 69.3412 61.5942 69.3412 60.8099V14.4786ZM52.0086 52.1228H63.5636V57.9142H52.0086V52.1228ZM52.0086 40.54H63.5636V46.3314H52.0086V40.54ZM52.0086 28.9571H63.5636V34.7485H52.0086V28.9571ZM52.0086 17.3743H63.5636V23.1657H52.0086V17.3743ZM17.3435 40.54H46.2311V46.3314H17.3435V40.54ZM17.3435 28.9571L46.2311 28.9571V34.7485H17.3435L17.3435 28.9571ZM17.3435 17.3743L46.2311 17.3743V23.1657L17.3435 23.1657V17.3743Z" fill="white" fill-opacity="0.8"/>
</svg>
