<svg width="282" height="207" viewBox="0 0 382 357" fill="none" xmlns="http://www.w3.org/2000/svg">
<path d="M181.741 44.4582C181.741 42.3143 182.603 40.2582 184.138 38.7423C185.673 37.2263 187.755 36.3747 189.926 36.3747H239.037C241.208 36.3747 243.29 37.2263 244.825 38.7423C246.36 40.2582 247.222 42.3143 247.222 44.4582V56.5834C247.222 58.7272 246.36 60.7833 244.825 62.2992C243.29 63.8152 241.208 64.6668 239.037 64.6668H189.926C187.755 64.6668 185.673 63.8152 184.138 62.2992C182.603 60.7833 181.741 58.7272 181.741 56.5834V44.4582ZM239.037 44.4582H189.926V56.5834L239.037 56.5834V44.4582ZM226.759 72.7503C224.589 72.7503 222.507 73.602 220.972 75.1179C219.437 76.6338 218.574 78.6899 218.574 80.8338V88.9173C218.574 91.0611 219.437 93.1172 220.972 94.6331C222.507 96.1491 224.589 97.0007 226.759 97.0007H239.037C241.208 97.0007 243.29 96.1491 244.825 94.6331C246.36 93.1172 247.222 91.0611 247.222 88.9173V80.8338C247.222 78.6899 246.36 76.6338 244.825 75.1179C243.29 73.602 241.208 72.7503 239.037 72.7503H226.759ZM226.759 80.8338H239.037V88.9173H226.759V80.8338ZM181.741 76.792C181.741 75.7201 182.172 74.6921 182.94 73.9341C183.707 73.1761 184.748 72.7503 185.834 72.7503H206.297C207.382 72.7503 208.423 73.1761 209.19 73.9341C209.958 74.6921 210.389 75.7201 210.389 76.792C210.389 77.864 209.958 78.892 209.19 79.65C208.423 80.408 207.382 80.8338 206.297 80.8338H185.834C184.748 80.8338 183.707 80.408 182.94 79.65C182.172 78.892 181.741 77.864 181.741 76.792ZM185.834 88.9173C184.748 88.9173 183.707 89.3431 182.94 90.101C182.172 90.859 181.741 91.887 181.741 92.959C181.741 94.0309 182.172 95.059 182.94 95.8169C183.707 96.5749 184.748 97.0007 185.834 97.0007H206.297C207.382 97.0007 208.423 96.5749 209.19 95.8169C209.958 95.059 210.389 94.0309 210.389 92.959C210.389 91.887 209.958 90.859 209.19 90.101C208.423 89.3431 207.382 88.9173 206.297 88.9173H185.834ZM185.809 16.166C180.382 16.166 175.177 18.2951 171.34 22.085C167.502 25.8749 165.346 31.015 165.346 36.3747V92.959C165.346 98.3187 167.502 103.459 171.34 107.249C175.177 111.039 180.382 113.168 185.809 113.168H243.105C245.792 113.168 248.453 112.645 250.936 111.629C253.419 110.614 255.674 109.125 257.575 107.249C259.475 105.372 260.982 103.144 262.01 100.693C263.039 98.2407 263.568 95.6128 263.568 92.959V36.3747C263.568 33.7208 263.039 31.093 262.01 28.6412C260.982 26.1893 259.475 23.9615 257.575 22.085C255.674 20.2085 253.419 18.7199 250.936 17.7043C248.453 16.6887 245.792 16.166 243.105 16.166L185.809 16.166ZM173.531 36.3747C173.531 33.1589 174.825 30.0748 177.127 27.8009C179.43 25.527 182.553 24.2495 185.809 24.2495L243.105 24.2495C246.361 24.2495 249.484 25.527 251.787 27.8009C254.089 30.0748 255.383 33.1589 255.383 36.3747V92.959C255.383 96.1748 254.089 99.2589 251.787 101.533C249.484 103.807 246.361 105.084 243.105 105.084H185.809C182.553 105.084 179.43 103.807 177.127 101.533C174.825 99.2589 173.531 96.1748 173.531 92.959V36.3747Z" fill="white" fill-opacity="0.8"/>
<g clip-path="url(#clip0)">
<path d="M76.1187 265.871L70.3412 271.663L64.5636 265.871L58.7861 271.663L53.0086 265.871L47.2311 271.663L41.4536 265.871L35.676 271.663L29.8985 265.871L24.121 271.663L18.3435 265.871L12.566 271.663L6.78844 265.871L1.01093 271.663L1.01093 184.791C1.01093 183.223 1.58266 181.866 2.72613 180.719C3.86959 179.573 5.2237 179 6.78844 179H76.1187C77.6834 179 79.0375 179.573 80.181 180.719C81.3245 181.866 81.8962 183.223 81.8962 184.791V271.663L76.1187 265.871ZM15.4547 254.288H32.7873C33.5697 254.288 34.2467 254.002 34.8184 253.429C35.3902 252.856 35.676 252.177 35.676 251.393C35.676 250.609 35.3902 249.93 34.8184 249.357C34.2467 248.784 33.5697 248.497 32.7873 248.497H15.4547C14.6724 248.497 13.9953 248.784 13.4236 249.357C12.8518 249.93 12.566 250.609 12.566 251.393C12.566 252.177 12.8518 252.856 13.4236 253.429C13.9953 254.002 14.6724 254.288 15.4547 254.288ZM70.3412 193.479C70.3412 192.694 70.0553 192.016 69.4836 191.443C68.9118 190.869 68.2348 190.583 67.4524 190.583H15.4547C14.6724 190.583 13.9953 190.869 13.4236 191.443C12.8518 192.016 12.566 192.694 12.566 193.479L12.566 228.227C12.566 229.011 12.8518 229.69 13.4236 230.263C13.9953 230.836 14.6724 231.123 15.4547 231.123H47.2311V239.81C47.2311 240.594 47.5169 241.273 48.0887 241.846C48.6604 242.419 49.3375 242.706 50.1198 242.706H67.4524C68.2348 242.706 68.9118 242.419 69.4836 241.846C70.0553 241.273 70.3412 240.594 70.3412 239.81V193.479ZM53.0086 231.123H64.5636V236.914H53.0086V231.123ZM53.0086 219.54H64.5636V225.331H53.0086V219.54ZM53.0086 207.957H64.5636V213.749H53.0086V207.957ZM53.0086 196.374H64.5636V202.166H53.0086V196.374ZM18.3435 219.54H47.2311V225.331H18.3435V219.54ZM18.3435 207.957H47.2311V213.749H18.3435L18.3435 207.957ZM18.3435 196.374H47.2311V202.166H18.3435V196.374Z" fill="white" fill-opacity="0.8"/>
</g>
<path d="M357.921 338.268H322.214V314.463H316.263V338.268H298.409V314.463H292.458V338.268C292.458 339.846 293.085 341.36 294.201 342.476C295.317 343.592 296.831 344.219 298.409 344.219H357.921C359.5 344.219 361.013 343.592 362.129 342.476C363.245 341.36 363.872 339.846 363.872 338.268V314.463H357.921V338.268Z" fill="white" fill-opacity="0.8"/>
<path d="M375.15 288.486L363.01 264.205C362.517 263.214 361.757 262.379 360.816 261.796C359.876 261.212 358.79 260.903 357.683 260.902H298.647C297.54 260.903 296.455 261.212 295.514 261.796C294.573 262.379 293.814 263.214 293.321 264.205L281.181 288.486C280.766 289.318 280.552 290.235 280.556 291.164V300.329C280.553 301.72 281.037 303.067 281.925 304.138C283.236 305.641 284.855 306.844 286.673 307.666C288.49 308.487 290.464 308.908 292.458 308.899C295.713 308.904 298.868 307.778 301.385 305.715C303.902 307.78 307.056 308.908 310.312 308.908C313.567 308.908 316.722 307.78 319.239 305.715C321.755 307.78 324.91 308.908 328.165 308.908C331.421 308.908 334.575 307.78 337.092 305.715C339.609 307.78 342.764 308.908 346.019 308.908C349.274 308.908 352.429 307.78 354.946 305.715C357.755 308.022 361.35 309.149 364.973 308.861C368.597 308.572 371.967 306.89 374.376 304.168C375.274 303.101 375.769 301.753 375.775 300.359V291.164C375.779 290.235 375.565 289.318 375.15 288.486ZM319.239 291.849V296.371L316.799 299.585C316.05 300.606 315.071 301.436 313.941 302.008C312.812 302.581 311.563 302.879 310.297 302.879C309.031 302.879 307.782 302.581 306.653 302.008C305.523 301.436 304.544 300.606 303.795 299.585L301.385 296.252V291.849L309.092 266.854H322.214L319.239 291.849ZM354.946 296.252L352.536 299.585C351.786 300.606 350.808 301.436 349.678 302.008C348.548 302.581 347.3 302.879 346.034 302.879C344.768 302.879 343.519 302.581 342.39 302.008C341.26 301.436 340.281 300.606 339.532 299.585L337.092 296.252V291.849L334.117 266.854H347.358L354.946 291.849V296.252Z" fill="white" fill-opacity="0.8"/>
<defs>
<clipPath id="clip0">
<rect width="80.9755" height="92.6627" fill="white" transform="translate(0.973267 179)"/>
</clipPath>
</defs>
</svg>
