<svg width="99" height="98" viewBox="0 0 99 98" fill="none" xmlns="http://www.w3.org/2000/svg">
<path d="M16.7411 28.4582C16.7411 26.3143 17.6035 24.2582 19.1385 22.7423C20.6735 21.2263 22.7554 20.3747 24.9263 20.3747L74.0371 20.3747C76.208 20.3747 78.2899 21.2263 79.8249 22.7423C81.3599 24.2582 82.2223 26.3143 82.2223 28.4582V40.5834C82.2223 42.7272 81.3599 44.7833 79.8249 46.2992C78.2899 47.8152 76.208 48.6668 74.0371 48.6668L24.9263 48.6668C22.7554 48.6668 20.6735 47.8152 19.1385 46.2992C17.6035 44.7833 16.7411 42.7272 16.7411 40.5834L16.7411 28.4582ZM74.0371 28.4582L24.9263 28.4582L24.9263 40.5834L74.0371 40.5834V28.4582ZM61.7594 56.7503C59.5886 56.7503 57.5067 57.602 55.9716 59.1179C54.4366 60.6338 53.5743 62.6899 53.5743 64.8338V72.9173C53.5743 75.0611 54.4366 77.1172 55.9716 78.6331C57.5067 80.1491 59.5886 81.0007 61.7594 81.0007H74.0371C76.208 81.0007 78.2899 80.1491 79.8249 78.6331C81.3599 77.1172 82.2223 75.0611 82.2223 72.9173V64.8338C82.2223 62.6899 81.3599 60.6338 79.8249 59.1179C78.2899 57.602 76.208 56.7503 74.0371 56.7503L61.7594 56.7503ZM61.7594 64.8338H74.0371V72.9173H61.7594V64.8338ZM16.7411 60.792C16.7411 59.7201 17.1723 58.6921 17.9398 57.9341C18.7073 57.1761 19.7483 56.7503 20.8337 56.7503H41.2966C42.382 56.7503 43.4229 57.1761 44.1904 57.9341C44.9579 58.6921 45.3891 59.7201 45.3891 60.792C45.3891 61.864 44.9579 62.892 44.1904 63.65C43.4229 64.408 42.382 64.8338 41.2966 64.8338H20.8337C19.7483 64.8338 18.7073 64.408 17.9398 63.65C17.1723 62.892 16.7411 61.864 16.7411 60.792ZM20.8337 72.9173C19.7483 72.9173 18.7073 73.3431 17.9398 74.101C17.1723 74.859 16.7411 75.887 16.7411 76.959C16.7411 78.0309 17.1723 79.059 17.9398 79.8169C18.7073 80.5749 19.7483 81.0007 20.8337 81.0007H41.2966C42.382 81.0007 43.4229 80.5749 44.1904 79.8169C44.9579 79.059 45.3891 78.0309 45.3891 76.959C45.3891 75.887 44.9579 74.859 44.1904 74.101C43.4229 73.3431 42.382 72.9173 41.2966 72.9173H20.8337ZM20.8091 0.166016C15.382 0.166016 10.1772 2.29514 6.33969 6.085C2.50216 9.87486 0.346252 15.015 0.346252 20.3747L0.346252 76.959C0.346252 82.3187 2.50216 87.4588 6.33969 91.2487C10.1772 95.0385 15.382 97.1677 20.8091 97.1677H78.1052C80.7924 97.1677 83.4533 96.645 85.936 95.6294C88.4186 94.6138 90.6744 93.1252 92.5746 91.2487C94.4747 89.3721 95.982 87.1443 97.0104 84.6925C98.0387 82.2407 98.568 79.6128 98.568 76.959V20.3747C98.568 17.7208 98.0387 15.093 97.0104 12.6412C95.982 10.1893 94.4747 7.96155 92.5746 6.085C90.6744 4.20845 88.4186 2.71989 85.936 1.70431C83.4533 0.688729 80.7924 0.166016 78.1052 0.166016L20.8091 0.166016ZM8.5314 20.3747C8.5314 17.1589 9.82494 14.0748 12.1275 11.8009C14.43 9.52696 17.5529 8.24949 20.8091 8.24949L78.1052 8.24949C81.3614 8.24949 84.4843 9.52696 86.7868 11.8009C89.0893 14.0748 90.3829 17.1589 90.3829 20.3747V76.959C90.3829 80.1748 89.0893 83.2589 86.7868 85.5328C84.4843 87.8067 81.3614 89.0842 78.1052 89.0842H20.8091C17.5529 89.0842 14.43 87.8067 12.1275 85.5328C9.82494 83.2589 8.5314 80.1748 8.5314 76.959L8.5314 20.3747Z" fill="white" fill-opacity="0.8"/>
</svg>
