<svg width="108" height="108" viewBox="0 0 108 108" fill="none" xmlns="http://www.w3.org/2000/svg">
<path d="M83.9213 89.2679H48.2142V65.4631H42.263V89.2679H24.4094V65.4631H18.4582V89.2679C18.4582 90.8463 19.0852 92.36 20.2013 93.476C21.3173 94.5921 22.831 95.2191 24.4094 95.2191H83.9213C85.4997 95.2191 87.0134 94.5921 88.1294 93.476C89.2455 92.36 89.8725 90.8463 89.8725 89.2679V65.4631H83.9213V89.2679Z" fill="white" fill-opacity="0.8"/>
<path d="M101.15 39.4861L89.0096 15.2053C88.5169 14.2138 87.7574 13.3793 86.8165 12.7959C85.8755 12.2124 84.7905 11.9029 83.6833 11.9023L24.6475 11.9023C23.5403 11.9029 22.4552 12.2124 21.5143 12.7959C20.5733 13.3793 19.8138 14.2138 19.3211 15.2053L7.18071 39.4861C6.7662 40.3178 6.55219 41.2349 6.55583 42.1642V51.329C6.55312 52.7195 7.0374 54.0671 7.92461 55.1378C9.23583 56.6408 10.8553 57.844 12.6729 58.6655C14.4905 59.487 16.4636 59.9076 18.4582 59.8987C21.7128 59.9038 24.8682 58.7784 27.385 56.7148C29.9018 58.7795 33.0565 59.908 36.3118 59.908C39.5671 59.908 42.7218 58.7795 45.2386 56.7148C47.7554 58.7795 50.91 59.908 54.1654 59.908C57.4207 59.908 60.5754 58.7795 63.0922 56.7148C65.609 58.7795 68.7636 59.908 72.019 59.908C75.2743 59.908 78.429 58.7795 80.9457 56.7148C83.7552 59.0216 87.3496 60.1492 90.9732 59.8607C94.5968 59.5721 97.9674 57.8898 100.376 55.1675C101.274 54.101 101.769 52.753 101.775 51.3588V42.1642C101.779 41.2349 101.565 40.3178 101.15 39.4861ZM45.2386 42.8486V47.3715L42.7986 50.5851C42.0496 51.606 41.0707 52.4362 39.9411 53.0084C38.8116 53.5807 37.5631 53.8788 36.2969 53.8788C35.0307 53.8788 33.7823 53.5807 32.6527 53.0084C31.5232 52.4362 30.5443 51.606 29.7952 50.5851L27.385 47.2524L27.385 42.8486L35.0918 17.8535L48.2142 17.8535L45.2386 42.8486ZM80.9457 47.2524L78.5355 50.5851C77.7865 51.606 76.8076 52.4362 75.678 53.0084C74.5485 53.5807 73.3001 53.8788 72.0338 53.8788C70.7676 53.8788 69.5192 53.5807 68.3896 53.0084C67.2601 52.4362 66.2812 51.606 65.5322 50.5851L63.0922 47.2524V42.8486L60.1166 17.8535H73.358L80.9457 42.8486V47.2524Z" fill="white" fill-opacity="0.8"/>
</svg>
